<svg xmlns="http://www.w3.org/2000/svg" xmlns:xlink="http://www.w3.org/1999/xlink" width="500" zoomAndPan="magnify" viewBox="0 0 375 374.999991" height="500" preserveAspectRatio="xMidYMid meet" version="1.0"><defs><filter x="0%" y="0%" width="100%" height="100%" id="47e05b5c7a"><feColorMatrix values="0 0 0 0 1 0 0 0 0 1 0 0 0 0 1 0 0 0 1 0" color-interpolation-filters="sRGB"></feColorMatrix></filter><g></g><mask id="4b24732fc9"><g filter="url(#47e05b5c7a)"><rect x="-37.5" width="450" fill="#000000" y="-37.499999" height="449.999989" fill-opacity="0.89"></rect></g></mask><clipPath id="42e67f9913"><path d="M 0 0 L 375 0 L 375 375 L 0 375 Z M 0 0 " clip-rule="nonzero"></path></clipPath><clipPath id="da12747968"><path d="M 187.5 0 C 83.945312 0 0 83.945312 0 187.5 C 0 291.054688 83.945312 375 187.5 375 C 291.054688 375 375 291.054688 375 187.5 C 375 83.945312 291.054688 0 187.5 0 Z M 187.5 0 " clip-rule="nonzero"></path></clipPath><clipPath id="2f3bf76806"><rect x="0" width="375" y="0" height="375"></rect></clipPath><clipPath id="7307e37c61"><path d="M 20.449219 99 L 354.199219 99 L 354.199219 214.523438 L 20.449219 214.523438 Z M 20.449219 99 " clip-rule="nonzero"></path></clipPath><clipPath id="ad9114dbe8"><path d="M 103 24.023438 L 241 24.023438 L 241 163 L 103 163 Z M 103 24.023438 " clip-rule="nonzero"></path></clipPath><clipPath id="7835520042"><rect x="0" width="305" y="0" height="89"></rect></clipPath><clipPath id="158e5c993e"><path d="M 133 0.519531 L 153 0.519531 L 153 28 L 133 28 Z M 133 0.519531 " clip-rule="nonzero"></path></clipPath><clipPath id="9a9c2694e1"><rect x="0" width="240" y="0" height="36"></rect></clipPath></defs><g mask="url(#4b24732fc9)"><g transform="matrix(1, 0, 0, 1, 0, 0)"><g clip-path="url(#2f3bf76806)"><g clip-path="url(#42e67f9913)"><g clip-path="url(#da12747968)"><rect x="-82.5" width="540" fill="#0090f8" height="539.999987" y="-82.499998" fill-opacity="1"></rect></g></g></g></g></g><g clip-path="url(#7307e37c61)"><path fill="#233dff" d="M 239.050781 99.777344 L 258.59375 126.625 C 122.148438 140.546875 20.546875 214.875 20.546875 214.875 C 39.644531 204.679688 71.863281 189.277344 114.128906 175.664062 C 139.53125 167.484375 170.582031 159.398438 205.820312 153.996094 C 249.804688 147.242188 300.308594 144.65625 354.441406 151.246094 L 239.050781 99.777344 " fill-opacity="1" fill-rule="nonzero"></path></g><path fill="#050a30" d="M 86.9375 191.410156 L 74.980469 212.121094 L 112.253906 212.121094 L 133.09375 176.023438 C 127.34375 177.683594 121.621094 179.425781 115.929688 181.257812 C 105.652344 184.566406 95.976562 187.988281 86.9375 191.410156 " fill-opacity="1" fill-rule="nonzero"></path><g clip-path="url(#ad9114dbe8)"><path fill="#050a30" d="M 183.578125 24.023438 L 103.589844 162.5625 C 117.679688 156.40625 133.773438 150.050781 151.5 144.144531 L 183.578125 88.582031 L 206.875 128.941406 C 217.804688 126.582031 229.085938 124.535156 240.660156 122.894531 L 183.578125 24.023438 " fill-opacity="1" fill-rule="nonzero"></path></g><path fill="#050a30" d="M 258.773438 154.269531 C 247.007812 154.964844 235.191406 156.066406 223.378906 157.523438 L 254.902344 212.121094 L 292.175781 212.121094 L 258.773438 154.269531 " fill-opacity="1" fill-rule="nonzero"></path><g transform="matrix(1, 0, 0, 1, 40, 202)"><g clip-path="url(#7835520042)"><g fill="#050a30" fill-opacity="1"><g transform="translate(1.494605, 70.232261)"><g><path d="M 41.859375 0.140625 L 40.375 0 L 38.734375 -0.703125 L 37.328125 -1.78125 L 36.890625 -3.046875 L 36.25 -4.40625 L 34.90625 -5.53125 L 33.34375 -6.3125 L 31.78125 -6.109375 L 30.515625 -6.25 L 23.5625 -6.171875 L 22.28125 -6.390625 L 19.296875 -6.109375 L 17.953125 -6.3125 L 16.46875 -5.53125 L 15.109375 -4.1875 L 13.828125 -1.84375 L 12.484375 -0.5625 L 10.859375 -0.078125 L 6.875 0.078125 L 5.46875 -0.078125 L 2.703125 0.078125 L 1.28125 -0.359375 L 0.921875 -2.125 L 1.34375 -3.546875 L 2.765625 -6.390625 L 3.125 -7.65625 L 3.90625 -8.65625 L 4.96875 -11.5 L 6.25 -13.765625 L 6.734375 -15.1875 L 7.453125 -16.25 L 7.875 -17.8125 L 15.109375 -33 L 15.53125 -34.265625 L 16.3125 -35.625 L 16.671875 -37.03125 L 17.453125 -38.109375 L 20.296875 -44.625 L 20.9375 -45.625 L 21.421875 -47.046875 L 22.0625 -48.25 L 23.34375 -49.453125 L 25.609375 -50.234375 L 27.953125 -49.53125 L 29.15625 -48.25 L 30.515625 -45.765625 L 30.9375 -44.484375 L 31.71875 -43.203125 L 32.140625 -41.796875 L 36.828125 -31.921875 L 37.328125 -30.4375 L 38.8125 -27.8125 L 39.234375 -26.671875 L 39.875 -25.609375 L 40.296875 -24.046875 L 41.015625 -22.703125 L 41.71875 -21.640625 L 44.421875 -15.1875 L 45.828125 -12.625 L 46.828125 -10 L 48.75 -6.3125 L 49.8125 -3.6875 L 50.3125 -2.0625 L 50.09375 -0.359375 L 48.109375 0 L 45.90625 0.078125 L 44.5625 -0.078125 Z M 25.75 -17.53125 L 28.59375 -17.59375 L 29.65625 -18.15625 L 29.9375 -19.4375 L 26.609375 -27.25 L 25.609375 -27.8125 L 24.828125 -27.171875 L 21.5 -19.515625 L 21.5625 -18.15625 L 22.703125 -17.671875 L 24.34375 -17.8125 Z M 25.75 -17.53125 "></path></g></g></g><g fill="#050a30" fill-opacity="1"><g transform="translate(52.994042, 70.232261)"><g><path d="M 5.328125 -2.90625 L 5.328125 -13.40625 L 5.171875 -14.828125 L 5.25 -20.578125 L 5.390625 -21.921875 L 5.25 -23.265625 L 5.25 -24.6875 L 5.171875 -26.25 L 5.390625 -29.09375 L 5.25 -30.515625 L 5.171875 -46.765625 L 6.03125 -48.75 L 7.3125 -49.453125 L 11.5 -49.8125 L 13.0625 -49.734375 L 14.46875 -49.453125 L 15.890625 -49.453125 L 17.171875 -49.8125 L 18.59375 -49.8125 L 20.015625 -49.53125 L 24.265625 -49.53125 L 26.328125 -49.671875 L 28.59375 -49.59375 L 32.640625 -48.671875 L 35.328125 -47.75 L 37.8125 -46.40625 L 41.859375 -42.140625 L 42.640625 -41.015625 L 43.203125 -39.8125 L 44.484375 -35.765625 L 44.703125 -34.34375 L 44.84375 -29.875 L 43.921875 -25.75 L 41.15625 -20.796875 L 40.15625 -19.9375 L 39.171875 -18.875 L 38.53125 -17.3125 L 38.59375 -15.609375 L 39.453125 -14.546875 L 41.71875 -10.859375 L 42.359375 -9.578125 L 44.765625 -5.953125 L 45.34375 -4.609375 L 46.1875 -3.625 L 46.96875 -2.0625 L 46.546875 -0.5 L 45.203125 0.140625 L 42.859375 0.21875 L 41.5 0.078125 L 35.90625 0.140625 L 33.484375 -0.5 L 31.921875 -1.78125 L 31.140625 -2.984375 L 30.578125 -4.40625 L 29.796875 -5.46875 L 28.453125 -8.015625 L 26.96875 -10.140625 L 26.390625 -11.421875 L 25.546875 -12.84375 L 24.125 -14.046875 L 20.015625 -14.609375 L 18.65625 -13.828125 L 18.015625 -12.421875 L 17.875 -7.875 L 18.09375 -6.390625 L 17.953125 -5.109375 L 17.953125 -2.703125 L 17.3125 -0.640625 L 15.046875 0.078125 L 12.90625 0.078125 L 11.78125 0.21875 L 9.5 0 L 8.09375 0.21875 L 6.03125 -0.703125 Z M 20.015625 -25.96875 L 21.5625 -26.109375 L 24.96875 -25.96875 L 26.328125 -26.046875 L 28.375 -26.53125 L 29.65625 -27.109375 L 30.4375 -27.75 L 31.21875 -28.8125 L 31.859375 -30.21875 L 32.078125 -32.359375 L 31.78125 -34.203125 L 31.359375 -35.328125 L 29.59375 -37.53125 L 28.234375 -37.890625 L 26.390625 -38.03125 L 24.40625 -38.453125 L 21.5625 -38.171875 L 20.15625 -38.25 L 18.65625 -37.671875 L 18.015625 -36.328125 L 17.875 -33.34375 L 18.015625 -32.140625 L 18.015625 -27.890625 L 18.59375 -26.75 Z M 20.015625 -25.96875 "></path></g></g></g><g fill="#050a30" fill-opacity="1"><g transform="translate(102.223526, 70.232261)"><g><path d="M 41.859375 0.140625 L 40.375 0 L 38.734375 -0.703125 L 37.328125 -1.78125 L 36.890625 -3.046875 L 36.25 -4.40625 L 34.90625 -5.53125 L 33.34375 -6.3125 L 31.78125 -6.109375 L 30.515625 -6.25 L 23.5625 -6.171875 L 22.28125 -6.390625 L 19.296875 -6.109375 L 17.953125 -6.3125 L 16.46875 -5.53125 L 15.109375 -4.1875 L 13.828125 -1.84375 L 12.484375 -0.5625 L 10.859375 -0.078125 L 6.875 0.078125 L 5.46875 -0.078125 L 2.703125 0.078125 L 1.28125 -0.359375 L 0.921875 -2.125 L 1.34375 -3.546875 L 2.765625 -6.390625 L 3.125 -7.65625 L 3.90625 -8.65625 L 4.96875 -11.5 L 6.25 -13.765625 L 6.734375 -15.1875 L 7.453125 -16.25 L 7.875 -17.8125 L 15.109375 -33 L 15.53125 -34.265625 L 16.3125 -35.625 L 16.671875 -37.03125 L 17.453125 -38.109375 L 20.296875 -44.625 L 20.9375 -45.625 L 21.421875 -47.046875 L 22.0625 -48.25 L 23.34375 -49.453125 L 25.609375 -50.234375 L 27.953125 -49.53125 L 29.15625 -48.25 L 30.515625 -45.765625 L 30.9375 -44.484375 L 31.71875 -43.203125 L 32.140625 -41.796875 L 36.828125 -31.921875 L 37.328125 -30.4375 L 38.8125 -27.8125 L 39.234375 -26.671875 L 39.875 -25.609375 L 40.296875 -24.046875 L 41.015625 -22.703125 L 41.71875 -21.640625 L 44.421875 -15.1875 L 45.828125 -12.625 L 46.828125 -10 L 48.75 -6.3125 L 49.8125 -3.6875 L 50.3125 -2.0625 L 50.09375 -0.359375 L 48.109375 0 L 45.90625 0.078125 L 44.5625 -0.078125 Z M 25.75 -17.53125 L 28.59375 -17.59375 L 29.65625 -18.15625 L 29.9375 -19.4375 L 26.609375 -27.25 L 25.609375 -27.8125 L 24.828125 -27.171875 L 21.5 -19.515625 L 21.5625 -18.15625 L 22.703125 -17.671875 L 24.34375 -17.8125 Z M 25.75 -17.53125 "></path></g></g></g><g fill="#050a30" fill-opacity="1"><g transform="translate(153.722963, 70.232261)"><g><path d="M 22.921875 -56.125 L 21.640625 -55.984375 L 20.796875 -55.984375 L 19.015625 -56.484375 L 19.4375 -57.890625 L 19.859375 -58.671875 L 20.078125 -59.53125 L 20.578125 -60.375 L 20.796875 -61.234375 L 21.28125 -61.9375 L 24.125 -68.328125 L 25.265625 -68.828125 L 30.21875 -66.984375 L 31 -66.90625 L 34.34375 -65.78125 L 35.1875 -64.921875 L 34.703125 -63.578125 L 34.125 -63.140625 L 29.515625 -57.96875 L 29.09375 -57.265625 L 28.375 -56.625 L 26.890625 -56.125 L 25.046875 -55.984375 L 24.40625 -55.90625 Z M 24.40625 0.921875 L 22.140625 0.78125 L 20.71875 0.78125 L 17.953125 0.21875 L 15.25 -1 L 14.1875 -1.625 L 12.765625 -2.265625 L 10.5 -3.765625 L 9.4375 -4.6875 L 8.578125 -5.671875 L 6.953125 -8.234375 L 5.8125 -10.640625 L 5.109375 -13.546875 L 4.6875 -19.234375 L 4.890625 -30.65625 L 4.75 -32 L 4.96875 -33.421875 L 4.75 -43.359375 L 4.890625 -44.484375 L 4.890625 -46.1875 L 4.75 -47.609375 L 5.671875 -48.953125 L 7.171875 -49.53125 L 8.65625 -49.734375 L 11.703125 -49.453125 L 13.125 -49.671875 L 14.46875 -49.671875 L 15.96875 -49.03125 L 16.8125 -47.46875 L 16.953125 -45.40625 L 16.8125 -43.140625 L 16.953125 -42.078125 L 16.75 -19.234375 L 17.171875 -15.109375 L 17.59375 -13.765625 L 18.453125 -12.625 L 19.578125 -11.78125 L 20.796875 -11.0625 L 22.421875 -10.71875 L 26.671875 -10.71875 L 29.15625 -11.640625 L 30.375 -12.484375 L 31.140625 -13.90625 L 31.578125 -14.96875 L 32.078125 -19.375 L 31.921875 -47.328125 L 32.703125 -48.890625 L 34.203125 -49.59375 L 37.171875 -49.390625 L 41.65625 -49.53125 L 43.203125 -49.03125 L 44.140625 -47.53125 L 43.921875 -46.125 L 43.921875 -40.234375 L 44.0625 -39.09375 L 43.921875 -37.53125 L 44.0625 -36.1875 L 44.0625 -17.03125 L 43.703125 -13.625 L 43.0625 -10.640625 L 42.359375 -9.4375 L 41.9375 -8.015625 L 40.296875 -5.53125 L 38.3125 -3.546875 L 35.96875 -1.984375 L 33.421875 -0.640625 L 27.890625 0.78125 L 26.53125 0.703125 Z M 24.40625 0.921875 "></path></g></g></g><g fill="#050a30" fill-opacity="1"><g transform="translate(202.668698, 70.232261)"><g><path d="M 18.015625 0.78125 L 16.609375 0.359375 L 15.328125 0.359375 L 13.765625 -0.28125 L 12.484375 -0.5625 L 9.859375 -1.5625 L 6.59375 -4.046875 L 5.46875 -5.109375 L 3.1875 -8.796875 L 2.203125 -11.359375 L 1.78125 -12.765625 L 1.625 -14.1875 L 1.703125 -16.3125 L 1.484375 -18.375 L 1.5625 -20.859375 L 2.265625 -22.203125 L 3.828125 -22.84375 L 5.390625 -22.84375 L 6.8125 -22.984375 L 11.28125 -22.84375 L 12.84375 -22.28125 L 13.625 -21 L 13.484375 -19.71875 L 13.546875 -16.53125 L 13.984375 -14.328125 L 14.46875 -13.125 L 15.46875 -12.203125 L 16.75 -11.5 L 18.15625 -11 L 20.15625 -10.578125 L 22.203125 -10.78125 L 24.6875 -11.984375 L 25.46875 -12.984375 L 26.046875 -14.40625 L 26.328125 -36.1875 L 25.546875 -37.53125 L 24.046875 -38.3125 L 21.859375 -38.171875 L 19.796875 -38.171875 L 18.453125 -38.390625 L 16.8125 -39.09375 L 16.3125 -40.578125 L 16.171875 -42 L 16.3125 -43.140625 L 16.25 -44.84375 L 16.3125 -46.1875 L 16.171875 -47.6875 L 16.953125 -48.890625 L 18.453125 -49.53125 L 19.9375 -49.53125 L 22.0625 -49.875 L 24.125 -49.53125 L 25.6875 -49.734375 L 31.359375 -49.53125 L 32.84375 -49.671875 L 36.40625 -49.59375 L 38.59375 -49.03125 L 39.3125 -47.609375 L 39.453125 -36.328125 L 39.234375 -35.046875 L 39.375 -16.25 L 39.03125 -12.765625 L 38.109375 -9.71875 L 36.890625 -7.3125 L 34.0625 -4.1875 L 32.84375 -3.328125 L 31.859375 -2.484375 L 27.890625 -0.640625 L 26.609375 0.140625 L 23.765625 0.5625 L 22.203125 0.5625 L 20.21875 0.78125 Z M 18.015625 0.78125 "></path></g></g></g><g fill="#050a30" fill-opacity="1"><g transform="translate(246.932675, 70.232261)"><g><path d="M 28.453125 0.921875 L 24.1875 0.703125 L 18.15625 -1.0625 L 16.8125 -1.625 L 11.984375 -4.1875 L 11.0625 -5.25 L 9.078125 -7.171875 L 5.75 -11.703125 L 5.03125 -12.984375 L 4.609375 -14.46875 L 3.546875 -16.890625 L 2.765625 -21.359375 L 3.046875 -29.59375 L 3.625 -32.640625 L 4.96875 -36.546875 L 5.609375 -37.75 L 8.015625 -41.296875 L 9.9375 -43.421875 L 12.203125 -44.984375 L 13.203125 -45.828125 L 16.8125 -48.109375 L 19.515625 -48.8125 L 20.796875 -49.390625 L 22.203125 -49.8125 L 23.625 -50.09375 L 28.59375 -50.375 L 31.921875 -50.3125 L 41.21875 -47.390625 L 44.84375 -45.125 L 47.890625 -42.359375 L 48.8125 -41.078125 L 49.671875 -40.234375 L 50.59375 -39.03125 L 51.09375 -37.75 L 52.359375 -35.40625 L 52.71875 -33.78125 L 53.28125 -32.28125 L 53.859375 -29.65625 L 54.203125 -24.765625 L 53.859375 -19.796875 L 53.5625 -18.234375 L 53.140625 -17.09375 L 52.9375 -15.6875 L 52.4375 -14.328125 L 49.671875 -9.4375 L 48.75 -8.15625 L 43.78125 -3.40625 L 37.46875 -0.5625 L 34.765625 0.28125 Z M 26.46875 -11.5625 L 30.578125 -11.703125 L 31.921875 -12.0625 L 33.203125 -12.203125 L 34.34375 -12.84375 L 35.625 -13.40625 L 37.8125 -15.109375 L 38.671875 -16.390625 L 39.3125 -17.453125 L 40.09375 -18.515625 L 40.734375 -21.421875 L 41.15625 -24.96875 L 40.875 -28.03125 L 40.375 -29.296875 L 39.953125 -30.71875 L 39.375 -32 L 37.75 -34.40625 L 35.546875 -36.046875 L 31.78125 -37.671875 L 28.375 -37.890625 L 25.125 -37.609375 L 23.625 -37.25 L 22.34375 -36.609375 L 20.296875 -35.1875 L 19.234375 -34.265625 L 18.3125 -33.140625 L 17.671875 -31.921875 L 16.8125 -30.9375 L 16.390625 -29.65625 L 15.890625 -27.03125 L 15.828125 -24.90625 L 16.171875 -21.359375 L 17.53125 -17.390625 L 18.453125 -16.390625 L 19.15625 -15.390625 L 21.359375 -13.484375 L 23.765625 -12.203125 L 25.046875 -12.0625 Z M 26.46875 -11.5625 "></path></g></g></g></g></g><path stroke-linecap="round" transform="matrix(0.75, 0, 0, 0.75, 45.810153, 286.068848)" fill="none" stroke-linejoin="miter" d="M 2.997922 3.001953 L 374.841696 3.001953 " stroke="#ffffff" stroke-width="6" stroke-opacity="1" stroke-miterlimit="4"></path><g transform="matrix(1, 0, 0, 1, 75, 293)"><g clip-path="url(#9a9c2694e1)"><g fill="#050a30" fill-opacity="1"><g transform="translate(0.959959, 27.4812)"><g><path d="M 9.171875 0.109375 L 8.625 -0.03125 L 7.28125 -0.03125 L 6.46875 0.078125 L 5.375 -0.03125 L 4.828125 0.03125 L 3.96875 0.0625 L 3.171875 -0.0625 L 2.65625 0 L 2.140625 0 L 1.59375 -0.25 L 1.3125 -0.984375 L 1.390625 -3.5 L 1.703125 -4 L 3.5 -4.546875 L 3.8125 -5.375 L 3.71875 -13.78125 L 3.484375 -14.515625 L 2.953125 -14.84375 L 2.40625 -14.84375 L 1.8125 -15.140625 L 1.5 -15.6875 L 1.5625 -16.21875 L 1.484375 -18.25 L 1.75 -18.90625 L 2.296875 -19.171875 L 2.9375 -19.171875 L 3.453125 -19.09375 L 5.703125 -19.09375 L 6.25 -19.203125 L 6.734375 -19.140625 L 10.046875 -19.140625 L 10.546875 -18.84375 L 10.875 -18.328125 L 10.84375 -15.609375 L 10.578125 -15.171875 L 10 -14.953125 L 9.453125 -14.875 L 8.84375 -14.625 L 8.65625 -14 L 8.546875 -11.234375 L 8.65625 -9.265625 L 8.59375 -8.65625 L 8.625 -5.640625 L 8.546875 -5.125 L 8.875 -4.484375 L 9.53125 -4.265625 L 10.109375 -4.265625 L 10.703125 -3.96875 L 11.03125 -3.453125 L 11.03125 -0.734375 L 10.765625 -0.21875 L 10.265625 0.0625 Z M 9.171875 0.109375 "></path></g></g></g><g fill="#050a30" fill-opacity="1"><g transform="translate(16.70591, 27.4812)"><g><path d="M 16.15625 -0.46875 L 15.75 -0.828125 L 15.03125 -1.609375 L 10.796875 -5.828125 L 10.328125 -6.140625 L 9.96875 -6.546875 L 8.03125 -8.40625 L 7.671875 -8.875 L 7.3125 -9.015625 L 7.125 -8.546875 L 7.0625 -8 L 7.046875 -1.0625 L 6.765625 -0.21875 L 6.21875 0.0625 L 5.640625 0.078125 L 4.578125 0 L 3.96875 0.0625 L 2.84375 0 L 2.265625 -0.1875 L 2.03125 -0.71875 L 1.96875 -3.015625 L 2.03125 -3.53125 L 1.96875 -8.03125 L 2.046875 -8.484375 L 2 -9.609375 L 2.03125 -10.078125 L 2.03125 -18.375 L 2.265625 -18.90625 L 2.90625 -19.171875 L 3.71875 -18.984375 L 4.359375 -18.65625 L 4.765625 -18.328125 L 10.15625 -12.875 L 10.921875 -12.265625 L 12.875 -10.328125 L 13.28125 -10.140625 L 13.453125 -10.59375 L 13.5 -15.5 L 13.453125 -16.109375 L 13.53125 -17.25 L 13.453125 -17.6875 L 13.46875 -18.265625 L 13.78125 -18.84375 L 14.296875 -19.140625 L 17.6875 -19.171875 L 18.25 -18.875 L 18.515625 -18.328125 L 18.59375 -14.515625 L 18.515625 -13.859375 L 18.515625 -11.140625 L 18.59375 -10.6875 L 18.546875 -0.6875 L 18.265625 -0.140625 L 17.671875 0.0625 L 16.90625 -0.03125 Z M 16.15625 -0.46875 "></path></g></g></g><g fill="#050a30" fill-opacity="1"><g transform="translate(40.666532, 27.4812)"><g><path d="M 2 -0.796875 L 1.96875 -9.015625 L 2.03125 -9.640625 L 1.96875 -10.15625 L 2 -10.6875 L 2.046875 -11.171875 L 2 -11.8125 L 2.046875 -12.296875 L 2.03125 -12.875 L 1.96875 -13.34375 L 2.078125 -16.40625 L 2 -17.234375 L 2.078125 -18.359375 L 2.25 -18.84375 L 2.84375 -19.140625 L 3.609375 -19.125 L 4.1875 -19.171875 L 5.59375 -19.171875 L 6.078125 -19.125 L 7.15625 -19.125 L 8 -19.171875 L 8.546875 -19.140625 L 9.375 -19.203125 L 9.859375 -19.140625 L 10.921875 -19.203125 L 11.53125 -19.125 L 13.171875 -19.140625 L 13.640625 -18.84375 L 13.96875 -18.015625 L 13.921875 -16.984375 L 13.96875 -15.578125 L 13.703125 -15.03125 L 13.140625 -14.765625 L 11.0625 -14.8125 L 10.484375 -14.765625 L 9.9375 -14.796875 L 9.453125 -14.765625 L 8.65625 -14.8125 L 7.78125 -14.8125 L 7.265625 -14.46875 L 6.984375 -13.921875 L 7.046875 -12.6875 L 6.984375 -12.15625 L 6.984375 -11.390625 L 7.28125 -10.8125 L 7.828125 -10.59375 L 8.4375 -10.625 L 9.5 -10.484375 L 10.953125 -10.59375 L 12.296875 -10.546875 L 12.875 -10.328125 L 13.140625 -9.78125 L 13.171875 -7.34375 L 12.90625 -6.484375 L 12.328125 -6.21875 L 11.203125 -6.15625 L 10.65625 -6.21875 L 10.078125 -6.1875 L 9.53125 -6.25 L 8.984375 -6.140625 L 8.40625 -6.25 L 7.8125 -6.1875 L 7.265625 -5.9375 L 7.015625 -5.390625 L 7.046875 -2.5 L 6.984375 -1.96875 L 7.0625 -1.09375 L 6.734375 -0.28125 L 6.15625 -0.03125 L 4.796875 0.078125 L 2.875 0 L 2.265625 -0.28125 Z M 2 -0.796875 "></path></g></g></g><g fill="#050a30" fill-opacity="1"><g transform="translate(58.904263, 27.4812)"><g><path d="M 10.984375 0.359375 L 9.34375 0.28125 L 7.015625 -0.40625 L 6.484375 -0.625 L 4.625 -1.609375 L 4.265625 -2.03125 L 3.5 -2.765625 L 2.21875 -4.515625 L 1.9375 -5.015625 L 1.78125 -5.59375 L 1.375 -6.515625 L 1.0625 -8.25 L 1.171875 -11.421875 L 1.390625 -12.59375 L 1.921875 -14.109375 L 2.15625 -14.578125 L 3.09375 -15.9375 L 3.828125 -16.765625 L 4.71875 -17.359375 L 5.09375 -17.6875 L 6.484375 -18.578125 L 7.53125 -18.84375 L 8.03125 -19.0625 L 8.578125 -19.234375 L 9.125 -19.34375 L 11.03125 -19.453125 L 12.328125 -19.421875 L 15.90625 -18.296875 L 17.3125 -17.421875 L 18.484375 -16.359375 L 18.84375 -15.859375 L 19.171875 -15.53125 L 19.53125 -15.0625 L 19.71875 -14.578125 L 20.21875 -13.671875 L 20.34375 -13.03125 L 20.578125 -12.46875 L 20.796875 -11.453125 L 20.921875 -9.5625 L 20.796875 -7.640625 L 20.6875 -7.046875 L 20.515625 -6.59375 L 20.4375 -6.046875 L 20.234375 -5.53125 L 19.171875 -3.640625 L 18.8125 -3.15625 L 16.90625 -1.3125 L 14.46875 -0.21875 L 13.421875 0.109375 Z M 10.21875 -4.46875 L 11.8125 -4.515625 L 12.328125 -4.65625 L 12.8125 -4.71875 L 13.25 -4.953125 L 13.75 -5.171875 L 14.59375 -5.828125 L 14.921875 -6.328125 L 15.171875 -6.734375 L 15.46875 -7.15625 L 15.71875 -8.265625 L 15.890625 -9.640625 L 15.78125 -10.8125 L 15.578125 -11.3125 L 15.421875 -11.859375 L 15.203125 -12.359375 L 14.578125 -13.28125 L 13.71875 -13.921875 L 12.265625 -14.546875 L 10.953125 -14.625 L 9.703125 -14.515625 L 9.125 -14.375 L 8.625 -14.140625 L 7.828125 -13.578125 L 7.421875 -13.234375 L 7.0625 -12.796875 L 6.8125 -12.328125 L 6.484375 -11.9375 L 6.328125 -11.453125 L 6.140625 -10.4375 L 6.109375 -9.609375 L 6.25 -8.25 L 6.765625 -6.703125 L 7.125 -6.328125 L 7.390625 -5.9375 L 8.25 -5.203125 L 9.171875 -4.71875 L 9.671875 -4.65625 Z M 10.21875 -4.46875 "></path></g></g></g><g fill="#050a30" fill-opacity="1"><g transform="translate(84.179225, 27.4812)"><g><path d="M 2.046875 -1.125 L 2.046875 -5.171875 L 2 -5.71875 L 2.03125 -7.9375 L 2.078125 -8.46875 L 2.03125 -8.984375 L 2.03125 -9.53125 L 2 -10.140625 L 2.078125 -11.234375 L 2.03125 -11.78125 L 2 -18.046875 L 2.328125 -18.8125 L 2.828125 -19.09375 L 4.4375 -19.234375 L 5.046875 -19.203125 L 5.59375 -19.09375 L 6.140625 -19.09375 L 6.625 -19.234375 L 7.171875 -19.234375 L 7.71875 -19.125 L 9.375 -19.125 L 10.15625 -19.171875 L 11.03125 -19.140625 L 12.59375 -18.796875 L 13.640625 -18.4375 L 14.59375 -17.90625 L 16.15625 -16.265625 L 16.46875 -15.828125 L 16.6875 -15.359375 L 17.171875 -13.8125 L 17.25 -13.25 L 17.3125 -11.53125 L 16.953125 -9.9375 L 15.890625 -8.03125 L 15.5 -7.703125 L 15.125 -7.28125 L 14.875 -6.6875 L 14.90625 -6.03125 L 15.234375 -5.609375 L 16.109375 -4.1875 L 16.359375 -3.703125 L 17.28125 -2.296875 L 17.5 -1.78125 L 17.828125 -1.390625 L 18.125 -0.796875 L 17.96875 -0.1875 L 17.453125 0.0625 L 16.546875 0.078125 L 16.03125 0.03125 L 13.859375 0.0625 L 12.921875 -0.1875 L 12.328125 -0.6875 L 12.03125 -1.15625 L 11.8125 -1.703125 L 11.5 -2.109375 L 10.984375 -3.09375 L 10.40625 -3.921875 L 10.1875 -4.40625 L 9.859375 -4.953125 L 9.3125 -5.421875 L 7.71875 -5.640625 L 7.203125 -5.34375 L 6.953125 -4.796875 L 6.90625 -3.046875 L 6.984375 -2.46875 L 6.9375 -1.96875 L 6.9375 -1.046875 L 6.6875 -0.25 L 5.8125 0.03125 L 4.984375 0.03125 L 4.546875 0.078125 L 3.671875 0 L 3.125 0.078125 L 2.328125 -0.28125 Z M 7.71875 -10.03125 L 8.328125 -10.078125 L 9.640625 -10.03125 L 10.15625 -10.046875 L 10.953125 -10.25 L 11.453125 -10.46875 L 11.75 -10.703125 L 12.046875 -11.125 L 12.296875 -11.671875 L 12.375 -12.484375 L 12.265625 -13.203125 L 12.109375 -13.640625 L 11.421875 -14.484375 L 10.90625 -14.625 L 10.1875 -14.6875 L 9.421875 -14.84375 L 8.328125 -14.734375 L 7.78125 -14.765625 L 7.203125 -14.546875 L 6.953125 -14.03125 L 6.90625 -12.875 L 6.953125 -12.40625 L 6.953125 -10.765625 L 7.171875 -10.328125 Z M 7.71875 -10.03125 "></path></g></g></g><g fill="#050a30" fill-opacity="1"><g transform="translate(106.496905, 27.4812)"><g><path d="M 2.84375 0.078125 L 2.296875 -0.28125 L 2 -0.84375 L 2.03125 -6.90625 L 1.96875 -7.421875 L 2.046875 -10.1875 L 2 -10.734375 L 2.03125 -15.125 L 1.96875 -15.609375 L 2.046875 -16.6875 L 1.96875 -18.359375 L 2.265625 -18.921875 L 2.875 -19.203125 L 3.640625 -18.984375 L 4.265625 -18.515625 L 4.984375 -17.78125 L 5.421875 -17.390625 L 6.140625 -16.546875 L 6.515625 -16.21875 L 9.015625 -13.453125 L 9.609375 -12.90625 L 10.109375 -12.265625 L 10.484375 -11.890625 L 10.8125 -11.421875 L 11.390625 -11.203125 L 11.890625 -11.53125 L 13.5625 -13.234375 L 13.921875 -13.703125 L 16.328125 -16.15625 L 16.703125 -16.65625 L 17.03125 -16.953125 L 17.390625 -17.390625 L 18.546875 -18.59375 L 19.125 -18.953125 L 19.90625 -19.203125 L 20.484375 -18.90625 L 20.8125 -18.328125 L 20.765625 -17.796875 L 20.796875 -16.6875 L 20.765625 -16.21875 L 20.8125 -15.03125 L 20.796875 -14.515625 L 20.8125 -11.8125 L 20.765625 -11.203125 L 20.8125 -2.984375 L 20.765625 -2.4375 L 20.84375 -1.015625 L 20.515625 -0.21875 L 19.9375 0.078125 L 16.625 -0.03125 L 16.046875 -0.1875 L 15.828125 -0.828125 L 15.828125 -1.234375 L 15.78125 -2.46875 L 15.828125 -2.953125 L 15.78125 -3.96875 L 15.828125 -5.046875 L 15.75 -6.140625 L 15.796875 -7.640625 L 15.578125 -8.046875 L 15.234375 -7.890625 L 14.109375 -6.734375 L 13.71875 -6.46875 L 12.953125 -5.5625 L 12.625 -5.234375 L 12.25 -4.828125 L 11.703125 -4.40625 L 11.09375 -4.4375 L 10.515625 -4.84375 L 9.78125 -5.5625 L 9.421875 -6 L 8.296875 -7.125 L 7.96875 -7.53125 L 7.53125 -7.890625 L 7.265625 -8 L 7.015625 -7.75 L 7.015625 -6.6875 L 7.0625 -6.078125 L 7.015625 -5.09375 L 7.046875 -4.515625 L 6.953125 -3.671875 L 7.046875 -0.796875 L 6.703125 -0.296875 L 5.9375 0.03125 L 5.0625 -0.03125 L 4.46875 0.0625 L 3.390625 0 Z M 2.84375 0.078125 "></path></g></g></g><g clip-path="url(#158e5c993e)"><g fill="#050a30" fill-opacity="1"><g transform="translate(132.702872, 27.4812)"><g><path d="M 9.34375 -21.671875 L 8.84375 -21.609375 L 8.515625 -21.609375 L 7.828125 -21.796875 L 8 -22.34375 L 8.15625 -22.65625 L 8.25 -22.984375 L 8.4375 -23.3125 L 8.515625 -23.640625 L 8.703125 -23.90625 L 9.8125 -26.375 L 10.25 -26.5625 L 12.15625 -25.859375 L 12.46875 -25.828125 L 13.75 -25.390625 L 14.078125 -25.0625 L 13.890625 -24.546875 L 13.671875 -24.375 L 11.890625 -22.375 L 11.71875 -22.109375 L 11.453125 -21.859375 L 10.875 -21.671875 L 10.15625 -21.609375 L 9.921875 -21.578125 Z M 16.15625 0.0625 L 15.578125 0 L 14.953125 -0.28125 L 14.40625 -0.6875 L 14.25 -1.171875 L 14 -1.703125 L 13.46875 -2.140625 L 12.875 -2.4375 L 12.265625 -2.359375 L 11.78125 -2.40625 L 9.09375 -2.390625 L 8.59375 -2.46875 L 7.453125 -2.359375 L 6.9375 -2.4375 L 6.359375 -2.140625 L 5.828125 -1.609375 L 5.34375 -0.71875 L 4.828125 -0.21875 L 4.1875 -0.03125 L 2.65625 0.03125 L 2.109375 -0.03125 L 1.046875 0.03125 L 0.5 -0.140625 L 0.359375 -0.828125 L 0.515625 -1.375 L 1.0625 -2.46875 L 1.203125 -2.953125 L 1.5 -3.34375 L 1.921875 -4.4375 L 2.40625 -5.3125 L 2.609375 -5.859375 L 2.875 -6.265625 L 3.046875 -6.875 L 5.828125 -12.734375 L 6 -13.234375 L 6.296875 -13.75 L 6.4375 -14.296875 L 6.734375 -14.703125 L 7.828125 -17.234375 L 8.078125 -17.609375 L 8.265625 -18.15625 L 8.515625 -18.625 L 9.015625 -19.09375 L 9.890625 -19.390625 L 10.796875 -19.125 L 11.25 -18.625 L 11.78125 -17.671875 L 11.9375 -17.171875 L 12.25 -16.6875 L 12.40625 -16.140625 L 14.21875 -12.328125 L 14.40625 -11.75 L 14.984375 -10.734375 L 15.140625 -10.296875 L 15.390625 -9.890625 L 15.5625 -9.28125 L 15.828125 -8.765625 L 16.109375 -8.359375 L 17.140625 -5.859375 L 17.6875 -4.875 L 18.078125 -3.859375 L 18.8125 -2.4375 L 19.234375 -1.421875 L 19.421875 -0.796875 L 19.34375 -0.140625 L 18.578125 0 L 17.71875 0.03125 L 17.203125 -0.03125 Z M 9.9375 -6.765625 L 11.03125 -6.796875 L 11.453125 -7.015625 L 11.5625 -7.5 L 10.265625 -10.515625 L 9.890625 -10.734375 L 9.59375 -10.484375 L 8.296875 -7.53125 L 8.328125 -7.015625 L 8.765625 -6.8125 L 9.390625 -6.875 Z M 9.9375 -6.765625 "></path></g></g></g></g><g fill="#050a30" fill-opacity="1"><g transform="translate(155.896784, 27.4812)"><g><path d="M 7.15625 0.0625 L 6.296875 0.03125 L 5.5 -0.25 L 5.15625 -0.84375 L 5.203125 -1.375 L 5.234375 -2.953125 L 5.171875 -3.53125 L 5.203125 -5.75 L 5.265625 -6.296875 L 5.171875 -10.375 L 5.234375 -11.140625 L 5.203125 -11.703125 L 5.234375 -12.296875 L 5.171875 -13.0625 L 5.234375 -13.9375 L 4.9375 -14.484375 L 4.40625 -14.765625 L 1.8125 -14.8125 L 1.265625 -14.765625 L 0.765625 -15.03125 L 0.515625 -15.53125 L 0.46875 -16.375 L 0.515625 -17.75 L 0.5 -18.296875 L 0.828125 -18.921875 L 1.34375 -19.203125 L 3.265625 -19.09375 L 4.109375 -19.171875 L 5.71875 -19.09375 L 6.21875 -19.203125 L 6.8125 -19.140625 L 7.390625 -19.234375 L 7.921875 -19.203125 L 8.46875 -19.09375 L 10.6875 -19.203125 L 11.203125 -19.140625 L 11.78125 -19.234375 L 12.296875 -19.171875 L 14 -19.171875 L 14.515625 -18.8125 L 14.8125 -18.265625 L 14.796875 -15.671875 L 14.46875 -15.0625 L 14 -14.765625 L 13.5 -14.796875 L 12.921875 -14.703125 L 11.921875 -14.84375 L 10.84375 -14.796875 L 10.328125 -14.46875 L 10.109375 -13.640625 L 10.03125 -11.25 L 10.109375 -10.6875 L 10.046875 -6.265625 L 10.140625 -5.671875 L 10.078125 -5.171875 L 10.109375 -4.078125 L 10.046875 -3.5 L 10.140625 -2.46875 L 10.046875 -1.046875 L 9.78125 -0.28125 L 8.984375 0 Z M 7.15625 0.0625 "></path></g></g></g><g fill="#050a30" fill-opacity="1"><g transform="translate(174.517864, 27.4812)"><g><path d="M 9.171875 0.109375 L 8.625 -0.03125 L 7.28125 -0.03125 L 6.46875 0.078125 L 5.375 -0.03125 L 4.828125 0.03125 L 3.96875 0.0625 L 3.171875 -0.0625 L 2.65625 0 L 2.140625 0 L 1.59375 -0.25 L 1.3125 -0.984375 L 1.390625 -3.5 L 1.703125 -4 L 3.5 -4.546875 L 3.8125 -5.375 L 3.71875 -13.78125 L 3.484375 -14.515625 L 2.953125 -14.84375 L 2.40625 -14.84375 L 1.8125 -15.140625 L 1.5 -15.6875 L 1.5625 -16.21875 L 1.484375 -18.25 L 1.75 -18.90625 L 2.296875 -19.171875 L 2.9375 -19.171875 L 3.453125 -19.09375 L 5.703125 -19.09375 L 6.25 -19.203125 L 6.734375 -19.140625 L 10.046875 -19.140625 L 10.546875 -18.84375 L 10.875 -18.328125 L 10.84375 -15.609375 L 10.578125 -15.171875 L 10 -14.953125 L 9.453125 -14.875 L 8.84375 -14.625 L 8.65625 -14 L 8.546875 -11.234375 L 8.65625 -9.265625 L 8.59375 -8.65625 L 8.625 -5.640625 L 8.546875 -5.125 L 8.875 -4.484375 L 9.53125 -4.265625 L 10.109375 -4.265625 L 10.703125 -3.96875 L 11.03125 -3.453125 L 11.03125 -0.734375 L 10.765625 -0.21875 L 10.265625 0.0625 Z M 9.171875 0.109375 "></path></g></g></g><g fill="#050a30" fill-opacity="1"><g transform="translate(190.263814, 27.4812)"><g><path d="M 9.53125 0.21875 L 9.015625 0.1875 L 8.515625 0.078125 L 7.96875 -0.109375 L 7.484375 -0.21875 L 6.25 -0.734375 L 5.0625 -1.375 L 3.828125 -2.4375 L 2.71875 -3.640625 L 1.53125 -6.03125 L 1.15625 -7.59375 L 0.984375 -9.59375 L 1.265625 -11.9375 L 1.53125 -13.0625 L 2.21875 -14.59375 L 2.734375 -15.390625 L 3.484375 -16.328125 L 4.65625 -17.390625 L 5.453125 -18 L 7.484375 -18.953125 L 10.140625 -19.46875 L 11.828125 -19.453125 L 12.375 -19.359375 L 12.90625 -19.34375 L 15.53125 -18.46875 L 17.390625 -17.28125 L 18.15625 -16.484375 L 18.46875 -15.96875 L 18.84375 -15.5 L 19.09375 -15.0625 L 19.390625 -14.625 L 19.5625 -14.046875 L 19.75 -13.5625 L 19.90625 -12.953125 L 19.71875 -12.40625 L 19.25 -12.1875 L 18.4375 -12.109375 L 17.671875 -12.1875 L 17.125 -12.15625 L 16.546875 -12.1875 L 16.046875 -12.140625 L 15.421875 -12.4375 L 14.90625 -12.953125 L 14.59375 -13.359375 L 13.8125 -14.15625 L 13.421875 -14.46875 L 12.921875 -14.65625 L 12.078125 -14.90625 L 10.90625 -14.953125 L 9.0625 -14.703125 L 8.328125 -14.296875 L 7.671875 -13.78125 L 7.015625 -13.015625 L 6.734375 -12.484375 L 6.328125 -11.5 L 6.140625 -10.40625 L 6.140625 -8.734375 L 6.21875 -8.140625 L 6.359375 -7.640625 L 6.546875 -7.265625 L 6.734375 -6.703125 L 7.34375 -5.75 L 8.140625 -5.046875 L 9.09375 -4.546875 L 10.078125 -4.1875 L 10.875 -4.109375 L 12.328125 -4.1875 L 13.28125 -4.71875 L 13.703125 -4.875 L 14.140625 -5.265625 L 14.765625 -5.96875 L 15.03125 -6.484375 L 15.46875 -6.9375 L 16.109375 -7.265625 L 16.65625 -7.234375 L 17.203125 -7.265625 L 17.75 -7.171875 L 19.28125 -7.28125 L 19.828125 -6.9375 L 20 -6.4375 L 19.28125 -4.359375 L 18.703125 -3.375 L 18.078125 -2.546875 L 17.3125 -1.78125 L 15.96875 -0.828125 L 15.5 -0.609375 L 14.921875 -0.40625 L 14.4375 -0.140625 L 12.8125 0.1875 L 10.90625 0.328125 Z M 9.53125 0.21875 "></path></g></g></g><g fill="#050a30" fill-opacity="1"><g transform="translate(214.470871, 27.4812)"><g><path d="M 16.15625 0.0625 L 15.578125 0 L 14.953125 -0.28125 L 14.40625 -0.6875 L 14.25 -1.171875 L 14 -1.703125 L 13.46875 -2.140625 L 12.875 -2.4375 L 12.265625 -2.359375 L 11.78125 -2.40625 L 9.09375 -2.390625 L 8.59375 -2.46875 L 7.453125 -2.359375 L 6.9375 -2.4375 L 6.359375 -2.140625 L 5.828125 -1.609375 L 5.34375 -0.71875 L 4.828125 -0.21875 L 4.1875 -0.03125 L 2.65625 0.03125 L 2.109375 -0.03125 L 1.046875 0.03125 L 0.5 -0.140625 L 0.359375 -0.828125 L 0.515625 -1.375 L 1.0625 -2.46875 L 1.203125 -2.953125 L 1.5 -3.34375 L 1.921875 -4.4375 L 2.40625 -5.3125 L 2.609375 -5.859375 L 2.875 -6.265625 L 3.046875 -6.875 L 5.828125 -12.734375 L 6 -13.234375 L 6.296875 -13.75 L 6.4375 -14.296875 L 6.734375 -14.703125 L 7.828125 -17.234375 L 8.078125 -17.609375 L 8.265625 -18.15625 L 8.515625 -18.625 L 9.015625 -19.09375 L 9.890625 -19.390625 L 10.796875 -19.125 L 11.25 -18.625 L 11.78125 -17.671875 L 11.9375 -17.171875 L 12.25 -16.6875 L 12.40625 -16.140625 L 14.21875 -12.328125 L 14.40625 -11.75 L 14.984375 -10.734375 L 15.140625 -10.296875 L 15.390625 -9.890625 L 15.5625 -9.28125 L 15.828125 -8.765625 L 16.109375 -8.359375 L 17.140625 -5.859375 L 17.6875 -4.875 L 18.078125 -3.859375 L 18.8125 -2.4375 L 19.234375 -1.421875 L 19.421875 -0.796875 L 19.34375 -0.140625 L 18.578125 0 L 17.71875 0.03125 L 17.203125 -0.03125 Z M 9.9375 -6.765625 L 11.03125 -6.796875 L 11.453125 -7.015625 L 11.5625 -7.5 L 10.265625 -10.515625 L 9.890625 -10.734375 L 9.59375 -10.484375 L 8.296875 -7.53125 L 8.328125 -7.015625 L 8.765625 -6.8125 L 9.390625 -6.875 Z M 9.9375 -6.765625 "></path></g></g></g></g></g></svg>